<svg xmlns="http://www.w3.org/2000/svg" xmlns:xlink="http://www.w3.org/1999/xlink" viewBox="0 0 200 154.05"><defs><style>.cls-1{fill:url(#未命名的渐变_4);}.cls-2{fill:url(#未命名的渐变_12);}.cls-3{fill:#95b6ff;}.cls-4{fill:#a3bfff;}.cls-5{fill:url(#未命名的渐变_12-2);}.cls-6{fill:url(#未命名的渐变_12-3);}.cls-7{fill:url(#未命名的渐变_12-4);}.cls-8{fill:#52b269;}.cls-9{fill:#83de90;}.cls-10{fill:#fff;}.cls-11{fill:#303030;}.cls-12{fill:#afb5bc;}.cls-13{opacity:0.21;fill:url(#未命名的渐变_73);}.cls-14{fill:#ededed;}.cls-15{fill:#bfbfbf;}.cls-16{fill:#e28686;}.cls-17{fill:none;stroke:#e28686;stroke-miterlimit:10;}</style><linearGradient id="未命名的渐变_4" x1="100" y1="154.05" x2="100" y2="102.83" gradientUnits="userSpaceOnUse"><stop offset="0" stop-color="#fff"/><stop offset="1" stop-color="#cfdfff"/></linearGradient><linearGradient id="未命名的渐变_12" x1="113.72" y1="67.33" x2="113.72" y2="110.65" gradientUnits="userSpaceOnUse"><stop offset="0" stop-color="#cddeff"/><stop offset="1" stop-color="#7eaaff"/></linearGradient><linearGradient id="未命名的渐变_12-2" x1="88.11" y1="81.96" x2="88.11" y2="125.28" xlink:href="#未命名的渐变_12"/><linearGradient id="未命名的渐变_12-3" x1="141.77" y1="81.96" x2="141.77" y2="125.28" xlink:href="#未命名的渐变_12"/><linearGradient id="未命名的渐变_12-4" x1="116.16" y1="39.28" x2="116.16" y2="82.6" xlink:href="#未命名的渐变_12"/><radialGradient id="未命名的渐变_73" cx="34.71" cy="41.19" r="2.83" gradientUnits="userSpaceOnUse"><stop offset="0" stop-color="#6d6d6d" stop-opacity="0.2"/><stop offset="1" stop-color="#d5d9e0"/></radialGradient></defs><title>入库成功</title><g id="图层_2" data-name="图层 2"><g id="图层_1-2" data-name="图层 1"><path class="cls-1" d="M193.9,137H164.63c-2.69,0-4.87-1.27-4.87-2.84s2.18-2.85,4.87-2.85h18.3c2.69,0,4.87-1.27,4.87-2.85s-2.18-2.84-4.87-2.84h-11c-2.7,0-4.88-1.28-4.88-2.85s2.18-2.84,4.88-2.84h23.23c2.7,0,4.88-1.28,4.88-2.85s-2.18-2.84-4.88-2.84H165.85c-2.69,0-4.87-1.28-4.87-2.85s2.18-2.84,4.87-2.84h18.3c2.69,0,4.87-1.28,4.87-2.85s-2.18-2.85-4.87-2.85H28.05c-2.7,0-4.88,1.28-4.88,2.85s2.18,2.85,4.88,2.85h3.72c2.69,0,4.88,1.27,4.88,2.84s-2.19,2.85-4.88,2.85H6.1c-2.7,0-4.88,1.27-4.88,2.84s2.18,2.85,4.88,2.85H37.8c2.7,0,4.88,1.27,4.88,2.84s-2.18,2.85-4.88,2.85h-11c-2.69,0-4.88,1.27-4.88,2.84s2.19,2.85,4.88,2.85h3.72c2.7,0,4.88,1.27,4.88,2.85S33.25,137,30.55,137H4.88C2.18,137,0,138.26,0,139.83s2.18,2.84,4.88,2.84H36.59c2.69,0,4.87,1.28,4.87,2.85s-2.18,2.84-4.87,2.84H29.27c-2.7,0-4.88,1.28-4.88,2.85s2.18,2.84,4.88,2.84h143.9c2.69,0,4.88-1.27,4.88-2.84s-2.19-2.85-4.88-2.85h-2.5c-2.7,0-4.88-1.27-4.88-2.84s2.18-2.85,4.88-2.85H193.9c2.7,0,4.88-1.27,4.88-2.84S196.6,137,193.9,137Z"/><polygon class="cls-2" points="126.22 67.33 126.3 96.16 101.22 110.65 101.14 81.81 126.22 67.33"/><polygon class="cls-3" points="101.22 110.65 75.43 95.66 75.35 66.83 101.14 81.81 101.22 110.65"/><polygon class="cls-4" points="101.14 81.81 75.35 66.83 100.44 52.34 126.22 67.33 101.14 81.81"/><polygon class="cls-5" points="100.61 81.96 100.69 110.8 75.61 125.28 75.53 96.44 100.61 81.96"/><polygon class="cls-3" points="75.61 125.28 49.82 110.3 49.74 81.46 75.53 96.44 75.61 125.28"/><polygon class="cls-4" points="75.53 96.44 49.74 81.46 74.83 66.98 100.61 81.96 75.53 96.44"/><polygon class="cls-6" points="154.27 81.96 154.35 110.8 129.26 125.28 129.18 96.44 154.27 81.96"/><polygon class="cls-3" points="129.26 125.28 103.48 110.3 103.4 81.46 129.18 96.44 129.26 125.28"/><polygon class="cls-4" points="129.18 96.44 103.4 81.46 128.49 66.98 154.27 81.96 129.18 96.44"/><polygon class="cls-7" points="128.66 39.28 128.74 68.11 103.66 82.6 103.57 53.76 128.66 39.28"/><polygon class="cls-3" points="103.66 82.6 77.87 67.61 77.79 38.78 103.57 53.76 103.66 82.6"/><polygon class="cls-4" points="103.57 53.76 77.79 38.78 102.88 24.29 128.66 39.28 103.57 53.76"/><path class="cls-8" d="M158.27,96.73a8.46,8.46,0,0,1,.8-.28l.49-.14.47-.1.59-.09.34,0c.25,0,.49,0,.72,0h.17a5.7,5.7,0,0,1,.83.1l.2,0a4.37,4.37,0,0,1,.62.17l.19.07a4.89,4.89,0,0,1,.73.35h0l-5.15-3-.07,0a5.85,5.85,0,0,0-.56-.28l-.11,0-.19-.06-.29-.11-.33-.07-.2,0-.11,0a4.87,4.87,0,0,0-.68-.08h-.21a4.64,4.64,0,0,0-.53,0l-.19,0-.34,0-.31,0-.28.06-.46.1-.25.05-.25.09c-.26.07-.53.17-.8.27l-.28.1c-.09,0-.18.08-.27.12l-.27.12c-.34.17-.68.34-1,.54s-.72.44-1.08.68l-.34.25-.7.53-.39.32c-.21.18-.42.36-.63.56l-.38.35-.24.22c-.09.08-.16.18-.24.26-.26.26-.51.52-.75.8l-.24.25-.19.23c-.15.17-.29.35-.44.53l-.28.35-.22.3-.31.42-.22.3c-.12.16-.23.33-.34.5l-.22.33-.09.14c-.2.31-.39.63-.58.95l0,.06-.11.2c-.13.22-.26.45-.38.68s-.11.22-.16.33-.12.22-.17.33-.11.2-.15.3c-.13.26-.25.53-.37.8l-.06.13,0,0c-.14.34-.28.67-.41,1,0,.06,0,.12-.07.19l-.13.37c-.06.17-.13.33-.18.5s-.08.27-.12.4-.1.31-.14.46-.07.19-.09.29-.09.34-.13.51-.1.39-.14.58a1.94,1.94,0,0,1,0,.2c0,.14,0,.27-.07.41q-.09.45-.15.9a2.21,2.21,0,0,0-.05.25c0,.19,0,.37-.05.56s0,.27,0,.4c0,.42,0,.83,0,1.24,0,3.55,1.26,6,3.28,7.22l5.16,3c-2-1.17-3.27-3.67-3.28-7.21,0-.41,0-.83,0-1.25,0-.13,0-.26,0-.39s0-.54.09-.81.1-.6.16-.9.07-.41.12-.61.09-.39.14-.58.13-.53.21-.8.1-.31.14-.46.2-.6.31-.9c0-.13.08-.25.13-.37.15-.42.32-.83.5-1.24l.06-.14c.16-.36.33-.73.51-1.09.06-.11.12-.22.17-.33.18-.35.36-.68.55-1l.11-.19c.23-.39.46-.78.71-1.15l.21-.33c.19-.27.37-.54.56-.8l.31-.42.51-.65c.14-.18.29-.36.44-.53s.28-.33.43-.49.49-.54.74-.79.32-.33.48-.48l.38-.36.64-.55.38-.32c.24-.19.47-.36.71-.53l.34-.25c.35-.24.71-.47,1.07-.68s.7-.38,1-.54l.26-.12Z"/><path class="cls-9" d="M156.41,97.61c6.22-3.59,11.27-.72,11.29,6.42s-5,15.83-11.21,19.42-11.26.71-11.28-6.43S150.2,101.19,156.41,97.61Z"/><polygon class="cls-10" points="160.6 105.35 161.83 106.05 157.56 113.45 156.34 115.56 155.12 114.86 153.27 113.81 154.5 111.69 156.34 112.75 160.6 105.35"/><path class="cls-11" d="M49.07,32.1c1.72-1,3.11-.19,3.12,1.78l.08,29.63a6.82,6.82,0,0,1-3.1,5.37l-11.94,6.9c-1.72,1-3.12.2-3.13-1.78L34,44.38A6.82,6.82,0,0,1,37.12,39Z"/><path class="cls-12" d="M49.75,31.8a2,2,0,0,1,.51-.11h.05a2.07,2.07,0,0,1,.5,0h0a1.44,1.44,0,0,1,.45.17l-1.72-1h0l-.16-.08-.16-.06-.12,0h-.06l-.19,0h-.44a2.61,2.61,0,0,0-.27.06l-.12,0-.11,0-.14.05a4.25,4.25,0,0,0-.43.21L35.4,38a4.38,4.38,0,0,0-.58.41,1.3,1.3,0,0,0-.18.15l-.28.25-.12.12-.1.11-.12.13a3.76,3.76,0,0,0-.25.31.44.44,0,0,0-.08.11l0,.06-.08.11c-.06.09-.12.17-.18.27l-.16.26v0l-.13.22-.13.27a2.56,2.56,0,0,0-.11.24h0v0l-.12.28a2.47,2.47,0,0,0-.1.29c0,.05,0,.1-.05.15l0,.06,0,.11-.09.35,0,.22a.52.52,0,0,0,0,.11.43.43,0,0,0,0,.11,4.17,4.17,0,0,0,0,.61L32.38,73a2.21,2.21,0,0,0,.91,2L35,76a2.19,2.19,0,0,1-.91-2L34,44.38a5.81,5.81,0,0,1,0-.72.43.43,0,0,0,0-.11,5.58,5.58,0,0,1,.16-.68l0-.06c.08-.25.17-.5.27-.74h0a7.14,7.14,0,0,1,.37-.73v0a7.48,7.48,0,0,1,.43-.66l0-.06c.15-.19.3-.38.46-.55l.1-.11.4-.37c.06-.05.11-.11.18-.16a4.29,4.29,0,0,1,.58-.4l12-6.9a3.6,3.6,0,0,1,.57-.26Z"/><path class="cls-13" d="M35.4,38a4.38,4.38,0,0,0-.58.41,1.3,1.3,0,0,0-.18.15l-.28.25-.12.12-.1.11-.12.13a3.76,3.76,0,0,0-.25.31.44.44,0,0,0-.08.11l0,.06-.08.11c-.06.09-.12.17-.18.27l-.16.26v0l-.13.22-.13.27a2.56,2.56,0,0,0-.11.24h0v0l-.12.28a2.47,2.47,0,0,0-.1.29c0,.05,0,.1-.05.15l0,.06,0,.11-.09.35,0,.22a.52.52,0,0,0,0,.11.43.43,0,0,0,0,.11,4.17,4.17,0,0,0,0,.61l1.72,1a5.81,5.81,0,0,1,0-.72.43.43,0,0,0,0-.11,5.58,5.58,0,0,1,.16-.68l0-.06c.08-.25.17-.5.27-.74h0a7.14,7.14,0,0,1,.37-.73v0a7.48,7.48,0,0,1,.43-.66l0-.06c.15-.19.3-.38.46-.55l.1-.11.4-.37c.06-.05.11-.11.18-.16a4.29,4.29,0,0,1,.58-.4Z"/><path class="cls-14" d="M49,33.15c1.29-.74,2.35-.14,2.35,1.35l.09,29.4A5.18,5.18,0,0,1,49.07,68L37.32,74.73C36,75.48,35,74.88,35,73.39L34.89,44a5.13,5.13,0,0,1,2.33-4.05l1.44-.84v.59c0,.46.29.67.65.46l7.58-4.37a1.52,1.52,0,0,0,.64-1.21V34Z"/><path class="cls-10" d="M49,33.15c1.29-.74,2.35-.14,2.35,1.35l.09,29.4A5.18,5.18,0,0,1,49.07,68L37.32,74.73C36,75.48,35,74.88,35,73.39L34.89,44a5.13,5.13,0,0,1,2.33-4.05l1.44-.84v.59c0,.46.29.67.65.46l7.58-4.37a1.52,1.52,0,0,0,.64-1.21V34Z"/><polygon class="cls-15" points="36.64 60.91 36.65 62.59 45.42 57.52 45.42 55.85 36.64 60.91"/><polygon class="cls-15" points="49.79 49.96 36.63 57.56 36.64 59.23 49.79 51.64 49.79 49.96"/><polygon class="cls-15" points="49.78 46.61 36.62 54.2 36.63 55.88 49.78 48.28 49.78 46.61"/><polygon class="cls-15" points="49.76 38.2 36.6 45.8 36.62 52.52 49.77 44.93 49.76 38.2"/><rect class="cls-16" x="135.87" y="-3.43" width="0.53" height="15.51" transform="matrix(0.53, 0.85, -0.85, 0.53, 67.83, -113.51)"/><rect class="cls-16" x="124.24" y="10.14" width="4.28" height="0.53" transform="translate(13.61 68.4) rotate(-31.92)"/><rect class="cls-16" x="163.92" y="55.11" width="0.53" height="15.51" transform="matrix(0.53, 0.85, -0.85, 0.53, 130.73, -109.73)"/><rect class="cls-16" x="152.29" y="68.68" width="4.28" height="0.53" transform="translate(-13.1 92.09) rotate(-31.92)"/><rect class="cls-16" x="80.99" y="78.28" width="0.53" height="15.51" transform="translate(111.32 -28.43) rotate(58.08)"/><rect class="cls-16" x="69.36" y="91.85" width="4.28" height="0.53" transform="matrix(0.85, -0.53, 0.53, 0.85, -37.9, 51.74)"/><circle class="cls-17" cx="109.25" cy="18.69" r="1.83"/><circle class="cls-17" cx="167.79" cy="85.76" r="1.83"/></g></g></svg>