<?xml version="1.0" encoding="utf-8"?>
<!-- Generator: Adobe Illustrator 22.1.0, SVG Export Plug-In . SVG Version: 6.00 Build 0)  -->
<svg version="1.1" id="图层_1" xmlns="http://www.w3.org/2000/svg" xmlns:xlink="http://www.w3.org/1999/xlink" x="0px" y="0px"
	 viewBox="0 0 200 143.1" style="enable-background:new 0 0 200 143.1;" xml:space="preserve">
<style type="text/css">
	.st0{fill:url(#Combined-Shape_2_);}
	.st1{opacity:0.4;enable-background:new    ;}
	.st2{fill:#D8D8D8;}
	.st3{fill:#FFFFFF;}
</style>
<title>提交成功</title>
<g id="移动uI">
	<g id="提现成功-copy" transform="translate(-148.000000, -290.000000)">
		<g id="失败" transform="translate(148.000000, 290.000000)">
			
				<linearGradient id="Combined-Shape_2_" gradientUnits="userSpaceOnUse" x1="70.3805" y1="97.2874" x2="70.3805" y2="96.2874" gradientTransform="matrix(92.0198 0 0 -86.9983 -6371.3843 8485.833)">
				<stop  offset="0" style="stop-color:#FFA27B"/>
				<stop  offset="1" style="stop-color:#FF5454"/>
			</linearGradient>
			<path id="Combined-Shape" class="st0" d="M98.6,109C76.7,109,59,91.2,59,69.3s17.7-39.7,39.6-39.7s39.6,17.8,39.6,39.7
				S120.5,109,98.6,109z M128.9,33.7c-1-1,0.8-4.3,3.9-7.5s6.5-4.9,7.5-3.9c1,1-0.8,4.3-3.9,7.5C133.2,32.9,129.9,34.6,128.9,33.7z
				 M138.9,37.9c-0.4-1,2-2.9,5.4-4.1c3.3-1.2,6.4-1.4,6.7-0.3s-2,2.9-5.4,4.1C142.3,38.8,139.2,38.9,138.9,37.9z"/>
			<g id="Oval-27" class="st1">
				<ellipse class="st2" cx="99" cy="120.5" rx="28" ry="1.5"/>
			</g>
			<path id="Combined-Shape_1_" class="st3" d="M101.4,71.3l6,6c0.6,0.6,0.6,1.5,0,2.1c-0.6,0.6-1.5,0.6-2.1,0l-6-6l-6,6
				c-0.6,0.6-1.5,0.6-2.1,0c-0.6-0.6-0.6-1.5,0-2.1l6-6l-6-6c-0.6-0.6-0.6-1.5,0-2.1c0.6-0.6,1.5-0.6,2.1,0l6,6l6-6
				c0.6-0.6,1.5-0.6,2.1,0c0.6,0.6,0.6,1.5,0,2.1L101.4,71.3z"/>
		</g>
	</g>
</g>
</svg>
