<?xml version="1.0" encoding="utf-8"?>
<!-- Generator: Adobe Illustrator 22.1.0, SVG Export Plug-In . SVG Version: 6.00 Build 0)  -->
<svg version="1.1" id="图层_1" xmlns="http://www.w3.org/2000/svg" xmlns:xlink="http://www.w3.org/1999/xlink" x="0px" y="0px"
	 viewBox="0 0 200 143.1" style="enable-background:new 0 0 200 143.1;" xml:space="preserve">
<style type="text/css">
	.st0{fill:url(#Combined-Shape_1_);}
	.st1{opacity:0.4;enable-background:new    ;}
	.st2{fill:#D8D8D8;}
	.st3{fill:#FFFFFF;}
	.st4{fill:url(#SVGID_1_);}
	.st5{fill:url(#SVGID_2_);}
</style>
<title>提交成功</title>
<g>
	
		<linearGradient id="Combined-Shape_1_" gradientUnits="userSpaceOnUse" x1="70.326" y1="97.2059" x2="70.326" y2="96.2927" gradientTransform="matrix(92.0198 0 0 -86.9983 -6371.3843 8485.833)">
		<stop  offset="0" style="stop-color:#84EA61"/>
		<stop  offset="1" style="stop-color:#6ADD56"/>
	</linearGradient>
	<path id="Combined-Shape" class="st0" d="M100,108.5c-21.9,0-39.6-17.8-39.6-39.7S78.1,29.1,100,29.1s39.6,17.8,39.6,39.7
		S121.9,108.5,100,108.5z"/>
	<g id="Oval-27" class="st1">
		<ellipse class="st2" cx="100.4" cy="120" rx="28" ry="1.5"/>
	</g>
	<path id="Shape" class="st3" d="M112.1,65.8L98.6,79.3c-0.5,0.5-1.2,0.6-1.8,0.4c-0.2-0.1-0.4-0.2-0.6-0.4l-7.6-7.6
		c-0.6-0.6-0.6-1.7,0-2.4s1.7-0.6,2.4,0l6.4,6.4l12.3-12.3c0.6-0.6,1.7-0.6,2.4,0C112.8,64.1,112.8,65.2,112.1,65.8z"/>
</g>
<linearGradient id="SVGID_1_" gradientUnits="userSpaceOnUse" x1="141.0918" y1="32.7271" x2="141.0918" y2="20.8061">
	<stop  offset="0" style="stop-color:#84EA61"/>
	<stop  offset="1" style="stop-color:#6ADD56"/>
</linearGradient>
<path class="st4" d="M135.4,32.5c-1-1,0.8-4.3,3.9-7.5s6.5-4.9,7.5-3.9c1,1-0.8,4.3-3.9,7.5S136.4,33.4,135.4,32.5z"/>
<linearGradient id="SVGID_2_" gradientUnits="userSpaceOnUse" x1="70.8846" y1="97.1775" x2="70.8846" y2="97.1108" gradientTransform="matrix(92.0198 0 0 -86.9983 -6371.3843 8485.833)">
	<stop  offset="0" style="stop-color:#84EA61"/>
	<stop  offset="1" style="stop-color:#6ADD56"/>
</linearGradient>
<path class="st5" d="M145.3,36.7c-0.4-1,2-2.9,5.4-4.1c3.3-1.2,6.4-1.4,6.7-0.3c0.4,1-2,2.9-5.4,4.1
	C148.7,37.6,145.7,37.7,145.3,36.7z"/>
</svg>
