<svg xmlns="http://www.w3.org/2000/svg" xmlns:xlink="http://www.w3.org/1999/xlink" viewBox="0 0 200 168.69"><defs><style>.cls-1{fill:#52b269;}.cls-2{fill:url(#未命名的渐变_4);}.cls-3{fill:#83de90;}.cls-4{clip-path:url(#clip-path);}.cls-5{isolation:isolate;}.cls-6{fill:#70c482;}.cls-7{fill:#fcfcfc;}.cls-8{fill:#b4cbff;}.cls-9{fill:#95b6ff;}.cls-10{fill:url(#未命名的渐变_12);}.cls-11{fill:url(#未命名的渐变_12-2);}.cls-12{fill:url(#未命名的渐变_12-3);}.cls-13{fill:url(#未命名的渐变_12-4);}.cls-14{fill:url(#未命名的渐变_12-5);}.cls-15{fill:url(#未命名的渐变_12-6);}.cls-16{fill:url(#未命名的渐变_12-7);}.cls-17{fill:url(#未命名的渐变_12-8);}.cls-18{fill:#ffb100;}.cls-19{fill:#ffca02;}.cls-20{fill:#fff;}.cls-21{opacity:0.39;fill:url(#未命名的渐变_50);}.cls-22{fill:#303030;}.cls-23{fill:#afb5bc;}.cls-24{opacity:0.21;fill:url(#未命名的渐变_73);}.cls-25{fill:#ededed;}.cls-26{fill:#e28686;}.cls-27{fill:none;stroke:#e28686;stroke-miterlimit:10;}</style><linearGradient id="未命名的渐变_4" x1="100" y1="168.69" x2="100" y2="117.47" gradientUnits="userSpaceOnUse"><stop offset="0" stop-color="#fff"/><stop offset="1" stop-color="#cfdfff"/></linearGradient><clipPath id="clip-path"><path class="cls-1" d="M33.68,114.62l-3.44-2c-1.36-.79-2.46-2.24-2.47-4.86l0-6.17,3.44,2,0,6.17C31.22,112.38,32.32,113.83,33.68,114.62Z"/></clipPath><linearGradient id="未命名的渐变_12" x1="120.16" y1="78.97" x2="120.16" y2="126.93" gradientUnits="userSpaceOnUse"><stop offset="0" stop-color="#cddeff"/><stop offset="1" stop-color="#7eaaff"/></linearGradient><linearGradient id="未命名的渐变_12-2" x1="117.11" y1="82.43" x2="117.11" y2="118.79" xlink:href="#未命名的渐变_12"/><linearGradient id="未命名的渐变_12-3" x1="120.03" y1="56.46" x2="120.03" y2="78.09" xlink:href="#未命名的渐变_12"/><linearGradient id="未命名的渐变_12-4" x1="120.02" y1="43.29" x2="120.02" y2="91.25" xlink:href="#未命名的渐变_12"/><linearGradient id="未命名的渐变_12-5" x1="87.99" y1="97.52" x2="87.99" y2="145.48" xlink:href="#未命名的渐变_12"/><linearGradient id="未命名的渐变_12-6" x1="87.99" y1="110.69" x2="87.99" y2="132.32" xlink:href="#未命名的渐变_12"/><linearGradient id="未命名的渐变_12-7" x1="87.89" y1="75.02" x2="87.89" y2="96.64" xlink:href="#未命名的渐变_12"/><linearGradient id="未命名的渐变_12-8" x1="87.89" y1="61.84" x2="87.89" y2="109.8" xlink:href="#未命名的渐变_12"/><linearGradient id="未命名的渐变_50" x1="117.07" y1="43.08" x2="117.07" y2="145.52" gradientUnits="userSpaceOnUse"><stop offset="0" stop-color="#cddeff" stop-opacity="0.4"/><stop offset="1" stop-color="#7eaaff"/></linearGradient><radialGradient id="未命名的渐变_73" cx="156.45" cy="103.38" r="2.83" gradientUnits="userSpaceOnUse"><stop offset="0" stop-color="#6d6d6d" stop-opacity="0.2"/><stop offset="1" stop-color="#d5d9e0"/></radialGradient></defs><title>扫描二维码</title><g id="图层_2" data-name="图层 2"><g id="图层_1-2" data-name="图层 1"><path class="cls-2" d="M193.9,151.62H164.63c-2.69,0-4.87-1.28-4.87-2.85s2.18-2.85,4.87-2.85h18.3c2.69,0,4.87-1.27,4.87-2.84s-2.18-2.85-4.87-2.85h-11c-2.7,0-4.88-1.27-4.88-2.84s2.18-2.85,4.88-2.85h23.23c2.7,0,4.88-1.27,4.88-2.84s-2.18-2.85-4.88-2.85H165.85c-2.69,0-4.87-1.27-4.87-2.84s2.18-2.85,4.87-2.85h18.3c2.69,0,4.87-1.27,4.87-2.85s-2.18-2.84-4.87-2.84H28.05c-2.7,0-4.88,1.27-4.88,2.84s2.18,2.85,4.88,2.85h3.72c2.69,0,4.88,1.27,4.88,2.85s-2.19,2.84-4.88,2.84H6.1c-2.7,0-4.88,1.27-4.88,2.85s2.18,2.84,4.88,2.84H37.8c2.7,0,4.88,1.28,4.88,2.85s-2.18,2.84-4.88,2.84h-11c-2.69,0-4.88,1.28-4.88,2.85s2.19,2.84,4.88,2.84h3.72c2.7,0,4.88,1.28,4.88,2.85s-2.18,2.85-4.88,2.85H4.88c-2.7,0-4.88,1.27-4.88,2.84s2.18,2.85,4.88,2.85H36.59c2.69,0,4.87,1.27,4.87,2.84S39.28,163,36.59,163H29.27c-2.7,0-4.88,1.27-4.88,2.84s2.18,2.85,4.88,2.85h143.9c2.69,0,4.88-1.28,4.88-2.85s-2.19-2.84-4.88-2.84h-2.5c-2.7,0-4.88-1.28-4.88-2.85s2.18-2.84,4.88-2.84H193.9c2.7,0,4.88-1.28,4.88-2.85S196.6,151.62,193.9,151.62Z"/><path class="cls-3" d="M38.68,95.57c2.92,1.3,7.28-.54,7.51-.64v6.17c0,6.68-7.09,14-7.47,14.36-.37,0-7.5,1-7.52-5.7l0-6.17A31.73,31.73,0,0,0,38.68,95.57Z"/><path class="cls-1" d="M33.68,114.62l-3.44-2c-1.36-.79-2.46-2.24-2.47-4.86l0-6.17,3.44,2,0,6.17C31.22,112.38,32.32,113.83,33.68,114.62Z"/><g class="cls-4"><g class="cls-5"><path class="cls-1" d="M33.68,114.62l-3.44-2c-1.36-.79-2.46-2.24-2.47-4.86l0-6.17,3.44,2,0,6.17c0,2.62,1.11,4.07,2.47,4.86"/></g></g><path class="cls-6" d="M45,95.37l.46-.15.12,0,.29-.11.06,0,.21-.09h0l.06,0-3.44-2-.07,0-.22.09-.06,0-.29.11-.12,0-.45.15,0,0-.56.16-.17,0-.55.13-.15,0-.72.14h-.12a9.4,9.4,0,0,1-1.08.11h-1a4.1,4.1,0,0,1-.49-.06l-.19,0-.33-.08-.28-.06-.19-.07c-.13,0-.27-.09-.4-.15l-.36.55-.29.44-.24.33-.46.63-.22.27c-.3.38-.6.75-.9,1.1l-.19.21-.6.67-.2.21c-.25.27-.5.52-.74.76l-.15.14-.45.44-.22.2-.35.32-.22.2-.3.27-.2.17-.28.23-.16.14c-.09.06-.16.13-.24.18l-.13.12a1.73,1.73,0,0,0-.2.15l-.09.07-.17.13,0,0-.11.07h0l3.44,2,.1-.07.05,0a1.1,1.1,0,0,0,.14-.11l.11-.08.18-.14.15-.12.22-.18.18-.15.26-.22.21-.18.29-.26.23-.2.35-.32.22-.2.44-.42c0-.05.09-.1.15-.15h0l.74-.76.2-.21.6-.67.14-.15.05-.06c.3-.35.6-.72.9-1.1l.09-.11.12-.16c.16-.21.32-.42.47-.64l.15-.2.08-.12.3-.44c.07-.11.14-.2.2-.31l.16-.24h0l.1,0,.3.11.19.06h0l.24.06.33.07h0l.16,0a3.86,3.86,0,0,0,.49.06h.21c.22,0,.45,0,.67,0a.41.41,0,0,0,.11,0h0c.36,0,.72-.06,1.07-.11h.07l.06,0c.25,0,.49-.08.72-.13l.15,0,.55-.14.09,0,.07,0,.57-.17Z"/><polygon class="cls-7" points="43.07 100.32 43.69 100.66 38.81 109.12 38.2 110.17 37.59 109.82 35.13 108.42 35.75 107.36 38.2 108.76 43.07 100.32"/><polygon class="cls-8" points="106.27 122.55 93.38 115.06 117.35 101.21 130.24 108.71 106.27 122.55"/><polygon class="cls-9" points="106.28 126.93 93.39 119.44 93.38 115.06 106.27 122.55 106.28 126.93"/><polygon class="cls-10" points="133.97 78.97 134.06 110.89 106.28 126.93 106.27 122.55 130.24 108.71 130.16 81.17 133.97 78.97"/><polygon class="cls-8" points="130.16 81.17 117.27 73.68 121.08 71.48 133.97 78.97 130.16 81.17"/><polygon class="cls-9" points="130.24 108.71 117.35 101.21 117.27 73.68 130.16 81.17 130.24 108.71"/><polygon class="cls-9" points="123.11 97.15 110.22 89.66 110.2 83.39 123.09 90.89 123.11 97.15"/><polygon class="cls-9" points="114.96 107.5 102.07 100.01 102.05 94.37 114.94 101.86 114.96 107.5"/><polygon class="cls-8" points="114.94 101.86 102.05 94.37 110.22 89.66 123.11 97.15 114.94 101.86"/><polygon class="cls-8" points="123.08 85.26 110.19 77.77 115.09 74.94 127.98 82.43 123.08 85.26"/><polygon class="cls-9" points="106.26 118.79 93.36 111.3 93.31 93.14 106.2 100.64 106.26 118.79"/><polygon class="cls-8" points="111.09 92.18 98.2 84.69 110.19 77.77 123.08 85.26 111.09 92.18"/><polygon class="cls-11" points="127.98 82.43 128 88.06 128.02 94.32 128.03 98.08 128.03 99.95 114.96 107.5 114.94 101.86 123.11 97.15 123.09 90.89 111.11 97.81 111.16 115.96 106.26 118.79 106.2 100.64 106.19 95.01 111.09 92.18 123.08 85.26 127.98 82.43"/><polygon class="cls-8" points="106.19 95.01 93.3 87.52 98.2 84.69 111.09 92.18 106.19 95.01"/><polygon class="cls-9" points="106.2 100.64 93.31 93.14 93.3 87.52 106.19 95.01 106.2 100.64"/><polygon class="cls-8" points="109.98 84.67 97.09 77.17 117.25 65.53 130.14 73.03 109.98 84.67"/><polygon class="cls-9" points="130.14 73.03 117.25 65.53 117.18 42.38 130.07 49.87 130.14 73.03"/><polygon class="cls-8" points="113.74 63.69 100.85 56.2 113.38 48.97 126.27 56.46 113.74 63.69"/><polygon class="cls-12" points="126.27 56.46 126.31 70.85 113.78 78.09 113.74 63.69 126.27 56.46"/><polygon class="cls-9" points="113.78 78.09 100.89 70.59 100.85 56.2 113.74 63.69 113.78 78.09"/><path class="cls-13" d="M106.09,59.33l27.78-16L134,75.21l-27.78,16Zm24,13.7-.07-23.16L109.92,61.51,110,84.66,130.14,73"/><polygon class="cls-9" points="106.18 91.25 93.29 83.76 93.2 51.84 106.09 59.33 106.18 91.25"/><polygon class="cls-8" points="106.09 59.33 93.2 51.84 120.98 35.8 133.87 43.29 106.09 59.33"/><polygon class="cls-8" points="77.94 138.9 65.05 131.41 85.21 119.77 98.1 127.26 77.94 138.9"/><polygon class="cls-9" points="98.1 127.26 85.21 119.77 85.14 96.61 98.03 104.1 98.1 127.26"/><polygon class="cls-8" points="81.7 117.92 68.81 110.43 81.34 103.19 94.23 110.69 81.7 117.92"/><polygon class="cls-9" points="81.74 132.31 68.85 124.82 68.81 110.43 81.7 117.92 81.74 132.31"/><path class="cls-14" d="M74.06,113.56l27.78-16,.09,31.92-27.78,16Zm24,13.7L98,104.1,77.88,115.74l.06,23.16L98.1,127.26"/><polygon class="cls-15" points="94.23 110.69 94.27 125.08 81.74 132.31 81.7 117.92 94.23 110.69"/><polygon class="cls-9" points="74.15 145.48 61.25 137.99 61.16 106.07 74.06 113.56 74.15 145.48"/><polygon class="cls-8" points="74.06 113.56 61.16 106.07 88.94 90.03 101.84 97.52 74.06 113.56"/><polygon class="cls-8" points="77.84 103.22 64.95 95.73 85.11 84.09 98 91.58 77.84 103.22"/><polygon class="cls-9" points="98 91.58 85.11 84.09 85.04 60.94 97.93 68.43 98 91.58"/><polygon class="cls-8" points="81.6 82.25 68.71 74.76 81.24 67.52 94.13 75.02 81.6 82.25"/><polygon class="cls-16" points="94.13 75.02 94.17 89.41 81.64 96.64 81.6 82.25 94.13 75.02"/><polygon class="cls-9" points="81.64 96.64 68.75 89.15 68.71 74.76 81.6 82.25 81.64 96.64"/><path class="cls-17" d="M74,77.88l27.79-16,.09,31.92-27.78,16Zm24,13.7-.07-23.15L77.77,80.07l.07,23.15L98,91.58"/><polygon class="cls-9" points="74.05 109.8 61.15 102.31 61.06 70.39 73.95 77.88 74.05 109.8"/><polygon class="cls-8" points="73.95 77.88 61.06 70.39 88.84 54.35 101.74 61.84 73.95 77.88"/><path class="cls-18" d="M52.68,50.47c0-.23,0-.46.07-.7l0-.2c0-.11,0-.22,0-.33s0-.15,0-.22l.06-.32c0-.06,0-.12,0-.18.06-.28.13-.55.2-.83l0-.13c.07-.24.14-.47.22-.71V46.8c.08-.23.16-.46.25-.69a1.22,1.22,0,0,1,.07-.17c.07-.19.15-.38.23-.58,0,0,0,0,0-.08.09-.22.19-.43.29-.63a1.3,1.3,0,0,1,.08-.17c.08-.17.16-.33.25-.49l.08-.16.34-.61.07-.11c.1-.18.21-.35.31-.52l.1-.15c.13-.21.27-.42.42-.62l.06-.1c.15-.21.3-.41.46-.61l.06-.09.6-.73.09-.1.38-.42,0,0,.42-.43.09-.08.56-.53.06,0a7.22,7.22,0,0,1,.6-.5l.11-.09c.2-.15.4-.3.61-.44l.1-.07c.22-.15.43-.28.65-.41l.52-.28.15-.07.39-.18.14-.06.36-.14.09,0,.45-.14.25-.06.12,0,.37-.07a5.35,5.35,0,0,1,.55-.05h.67l.37,0,.11,0,.41.1h0l.37.13.11.05.3.15.1,0L62,33.87l0,0,0,0a1.77,1.77,0,0,0-.31-.15l0,0,0,0-.37-.13h0l-.41-.1h-.11l-.38,0h-.66l-.55.06h0l-.37.07-.12,0-.23.05h0l-.44.14-.09,0-.36.14-.05,0-.09,0-.39.18-.15.07-.52.28c-.22.13-.44.26-.65.41l-.11.07c-.2.14-.4.28-.6.44l-.12.09-.6.49-.05.05c-.19.17-.38.34-.56.52l-.06.06,0,0L53,37l0,0c-.13.13-.26.28-.39.42l0,0,0,.06c-.21.24-.41.48-.6.73l0,0s0,0,0,.06c-.15.2-.31.4-.45.61l0,.07,0,0-.42.62,0,.06-.06.09c-.11.17-.22.34-.32.52l0,.08,0,0-.34.61,0,.05-.06.1-.25.5a.47.47,0,0,1,0,.1l0,.06c-.1.21-.19.42-.29.64v0s0,0,0,.06c-.09.19-.16.39-.24.58a.36.36,0,0,1,0,.09.24.24,0,0,0,0,.08c-.09.23-.17.46-.25.68v.06c-.08.23-.15.47-.21.71l0,.09a.06.06,0,0,0,0,0c-.08.28-.14.55-.2.83a.14.14,0,0,0,0,.07s0,.07,0,.1l-.06.33a1.7,1.7,0,0,0,0,.22c0,.11,0,.22-.05.33l0,.16v0c0,.23-.05.47-.07.7,0,.05,0,.1,0,.15,0,.24,0,.48,0,.72,0,2.59.92,4.41,2.39,5.27l4.67,2.71c-1.48-.86-2.39-2.68-2.4-5.27,0-.24,0-.48,0-.72A.76.76,0,0,0,52.68,50.47Z"/><ellipse class="cls-19" cx="60.87" cy="46.59" rx="11.58" ry="6.71" transform="translate(-10 75.81) rotate(-59.84)"/><polygon class="cls-20" points="66.06 42.5 63.16 46.6 64.28 49.88 61.37 49.13 58.48 53.23 59.58 48.67 56.66 47.92 60.25 45.85 61.35 41.29 62.47 44.57 66.06 42.5"/><polygon class="cls-21" points="74.39 145.52 74.39 78.44 134.15 43.08 159.76 105.27 74.39 145.52"/><path class="cls-22" d="M170.8,94.3c1.72-1,3.12-.2,3.13,1.78L174,125.7a6.82,6.82,0,0,1-3.1,5.38L159,138c-1.72,1-3.12.2-3.12-1.78l-.08-29.62a6.84,6.84,0,0,1,3.1-5.38Z"/><path class="cls-23" d="M171.49,94a2.5,2.5,0,0,1,.51-.12h0a2.14,2.14,0,0,1,.51,0h0a1.44,1.44,0,0,1,.45.17l-1.72-1h0l-.15-.07a.58.58,0,0,0-.17-.06l-.11,0h-.06l-.19,0h-.32l-.12,0a1.31,1.31,0,0,0-.27.06l-.12,0-.11,0-.14,0a3.61,3.61,0,0,0-.44.22l-11.94,6.89a5.68,5.68,0,0,0-.59.41c-.06.05-.11.11-.18.16s-.18.15-.27.24l-.12.13-.1.11-.12.12c-.09.1-.17.21-.25.31l-.09.11,0,.06-.08.11-.18.27-.16.26v0l0,0-.12.22c0,.08-.09.17-.13.26a1.89,1.89,0,0,0-.11.25h0c0,.09-.07.19-.11.28s-.07.2-.11.29,0,.1,0,.15l0,.07,0,.1c0,.12-.06.24-.09.36a2.07,2.07,0,0,1,0,.22.52.52,0,0,1,0,.11s0,.07,0,.1a4.26,4.26,0,0,0,0,.61l.08,29.62a2.16,2.16,0,0,0,.91,2l1.72,1a2.16,2.16,0,0,1-.91-2l-.08-29.62a4.31,4.31,0,0,1,.05-.71.5.5,0,0,0,0-.12,6,6,0,0,1,.16-.68l0-.06a5.39,5.39,0,0,1,.27-.73v0a6.91,6.91,0,0,1,.36-.72v0a7.74,7.74,0,0,1,.44-.67l0-.06c.15-.19.3-.37.46-.54l.1-.11a4.43,4.43,0,0,1,.39-.37l.18-.16a5.68,5.68,0,0,1,.59-.41L170.8,94.3a3.32,3.32,0,0,1,.58-.27Z"/><path class="cls-24" d="M157.14,100.19a5.68,5.68,0,0,0-.59.41c-.06.05-.11.11-.18.16s-.18.15-.27.24l-.12.13-.1.11-.12.12c-.09.1-.17.21-.25.31l-.09.11,0,.06-.08.11-.18.27-.16.26v0l0,0-.12.22c0,.08-.09.17-.13.26a1.89,1.89,0,0,0-.11.25h0c0,.09-.07.19-.11.28s-.07.2-.11.29,0,.1,0,.15l0,.07,0,.1c0,.12-.06.24-.09.36a2.07,2.07,0,0,1,0,.22.52.52,0,0,1,0,.11s0,.07,0,.1a4.26,4.26,0,0,0,0,.61l1.72,1a4.31,4.31,0,0,1,.05-.71.5.5,0,0,0,0-.12,6,6,0,0,1,.16-.68l0-.06a5.39,5.39,0,0,1,.27-.73v0a6.91,6.91,0,0,1,.36-.72v0a7.74,7.74,0,0,1,.44-.67l0-.06c.15-.19.3-.37.46-.54l.1-.11a4.43,4.43,0,0,1,.39-.37l.18-.16a5.68,5.68,0,0,1,.59-.41Z"/><path class="cls-25" d="M170.71,95.35c1.29-.75,2.35-.15,2.35,1.35l.08,29.4a5.13,5.13,0,0,1-2.33,4l-11.75,6.78c-1.29.75-2.35.15-2.35-1.33l-.09-29.4a5.19,5.19,0,0,1,2.34-4.06l1.44-.83v.59c0,.46.29.67.65.46L168.63,98a1.51,1.51,0,0,0,.64-1.2v-.59Z"/><path class="cls-20" d="M170.71,95.35c1.29-.75,2.35-.15,2.35,1.35l.08,29.4a5.13,5.13,0,0,1-2.33,4l-11.75,6.78c-1.29.75-2.35.15-2.35-1.33l-.09-29.4a5.19,5.19,0,0,1,2.34-4.06l1.44-.83v.59c0,.46.29.67.65.46L168.63,98a1.51,1.51,0,0,0,.64-1.2v-.59Z"/><path class="cls-3" d="M165.85,111c1.42.64,3.54-.26,3.65-.3v3c0,3.25-3.45,6.8-3.63,7s-3.65.48-3.66-2.77v-3A15.58,15.58,0,0,0,165.85,111Z"/><polygon class="cls-7" points="167.99 113.31 168.29 113.47 165.92 117.58 165.62 118.09 165.32 117.92 164.13 117.24 164.43 116.73 165.62 117.41 167.99 113.31"/><rect class="cls-26" x="130.28" y="-3.43" width="0.53" height="15.51" transform="translate(65.19 -108.76) rotate(58.08)"/><rect class="cls-26" x="118.65" y="10.14" width="4.28" height="0.53" transform="translate(12.76 65.44) rotate(-31.92)"/><rect class="cls-26" x="158.33" y="55.11" width="0.53" height="15.51" transform="translate(128.09 -104.99) rotate(58.08)"/><rect class="cls-26" x="146.69" y="68.68" width="4.28" height="0.53" transform="translate(-13.95 89.13) rotate(-31.92)"/><rect class="cls-26" x="75.4" y="78.28" width="0.53" height="15.51" transform="translate(108.68 -23.68) rotate(58.08)"/><rect class="cls-26" x="63.77" y="91.85" width="4.28" height="0.53" transform="translate(-38.74 48.78) rotate(-31.92)"/><circle class="cls-27" cx="103.66" cy="18.69" r="1.83"/><circle class="cls-27" cx="162.2" cy="85.76" r="1.83"/></g></g></svg>