<svg xmlns="http://www.w3.org/2000/svg" xmlns:xlink="http://www.w3.org/1999/xlink" viewBox="0 0 200 141.86"><defs><style>.cls-1{fill:url(#未命名的渐变_4);}.cls-2{fill:#b6cdff;}.cls-3{fill:url(#未命名的渐变_12);}.cls-4{fill:#95b6ff;}.cls-5{fill:#a3bfff;}.cls-6{fill:url(#未命名的渐变_12-2);}.cls-7{fill:url(#未命名的渐变_12-3);}.cls-8{fill:url(#未命名的渐变_12-4);}.cls-9{fill:url(#未命名的渐变_12-5);}.cls-10{fill:url(#未命名的渐变_12-6);}.cls-11{fill:url(#未命名的渐变_12-7);}.cls-12{fill:#52b269;}.cls-13{fill:#83de90;}.cls-14{fill:#fff;}.cls-15{fill:#e28686;}.cls-16{fill:none;stroke:#e28686;stroke-miterlimit:10;}</style><linearGradient id="未命名的渐变_4" x1="100" y1="141.86" x2="100" y2="90.64" gradientUnits="userSpaceOnUse"><stop offset="0" stop-color="#fff"/><stop offset="1" stop-color="#cfdfff"/></linearGradient><linearGradient id="未命名的渐变_12" x1="102.53" y1="43.86" x2="102.53" y2="118.49" gradientUnits="userSpaceOnUse"><stop offset="0" stop-color="#cddeff"/><stop offset="1" stop-color="#7eaaff"/></linearGradient><linearGradient id="未命名的渐变_12-2" x1="111.69" y1="82.37" x2="120.38" y2="82.37" xlink:href="#未命名的渐变_12"/><linearGradient id="未命名的渐变_12-3" x1="111.66" y1="70.44" x2="120.34" y2="70.44" xlink:href="#未命名的渐变_12"/><linearGradient id="未命名的渐变_12-4" x1="101.31" y1="88.36" x2="109.99" y2="88.36" xlink:href="#未命名的渐变_12"/><linearGradient id="未命名的渐变_12-5" x1="101.28" y1="76.44" x2="109.96" y2="76.44" xlink:href="#未命名的渐变_12"/><linearGradient id="未命名的渐变_12-6" x1="90.93" y1="94.35" x2="99.61" y2="94.35" xlink:href="#未命名的渐变_12"/><linearGradient id="未命名的渐变_12-7" x1="90.9" y1="82.43" x2="99.58" y2="82.43" xlink:href="#未命名的渐变_12"/></defs><title>扫码入库</title><g id="图层_2" data-name="图层 2"><g id="图层_1-2" data-name="图层 1"><path class="cls-1" d="M193.9,124.79H164.63c-2.69,0-4.87-1.28-4.87-2.85s2.18-2.85,4.87-2.85h18.3c2.69,0,4.87-1.27,4.87-2.84s-2.18-2.85-4.87-2.85h-11c-2.7,0-4.88-1.27-4.88-2.84s2.18-2.85,4.88-2.85h23.23c2.7,0,4.88-1.27,4.88-2.84s-2.18-2.85-4.88-2.85H165.85c-2.69,0-4.87-1.27-4.87-2.84s2.18-2.85,4.87-2.85h18.3c2.69,0,4.87-1.27,4.87-2.84s-2.18-2.85-4.87-2.85H28.05c-2.7,0-4.88,1.27-4.88,2.85s2.18,2.84,4.88,2.84h3.72c2.69,0,4.88,1.27,4.88,2.85S34.46,102,31.77,102H6.1c-2.7,0-4.88,1.28-4.88,2.85s2.18,2.84,4.88,2.84H37.8c2.7,0,4.88,1.28,4.88,2.85s-2.18,2.84-4.88,2.84h-11c-2.69,0-4.88,1.28-4.88,2.85s2.19,2.84,4.88,2.84h3.72c2.7,0,4.88,1.28,4.88,2.85s-2.18,2.85-4.88,2.85H4.88c-2.7,0-4.88,1.27-4.88,2.84s2.18,2.85,4.88,2.85H36.59c2.69,0,4.87,1.27,4.87,2.84s-2.18,2.85-4.87,2.85H29.27c-2.7,0-4.88,1.27-4.88,2.84s2.18,2.85,4.88,2.85h143.9c2.69,0,4.88-1.27,4.88-2.85s-2.19-2.84-4.88-2.84h-2.5c-2.7,0-4.88-1.28-4.88-2.85s2.18-2.84,4.88-2.84H193.9c2.7,0,4.88-1.28,4.88-2.85S196.6,124.79,193.9,124.79Z"/><polygon class="cls-2" points="102.42 43.86 85.23 33.87 111.23 38.77 128.42 48.76 102.42 43.86"/><polygon class="cls-3" points="102.42 43.86 128.42 48.76 128.54 88.52 76.63 118.49 76.51 78.73 102.42 43.86"/><polygon class="cls-4" points="76.63 118.49 59.44 108.5 59.32 68.74 76.51 78.73 76.63 118.49"/><polygon class="cls-5" points="76.51 78.73 59.32 68.74 85.23 33.87 102.42 43.86 76.51 78.73"/><polygon class="cls-6" points="120.35 74.9 120.38 84.84 111.72 89.84 111.69 79.9 120.35 74.9"/><polygon class="cls-7" points="120.31 62.97 120.34 72.91 111.69 77.91 111.66 67.97 120.31 62.97"/><polygon class="cls-8" points="109.96 80.89 109.99 90.83 101.34 95.83 101.31 85.89 109.96 80.89"/><polygon class="cls-9" points="109.93 68.97 109.96 78.91 101.31 83.9 101.28 73.96 109.93 68.97"/><polygon class="cls-10" points="99.58 86.89 99.61 96.83 90.96 101.82 90.93 91.88 99.58 86.89"/><polygon class="cls-11" points="99.55 74.96 99.58 84.9 90.93 89.89 90.9 79.95 99.55 74.96"/><path class="cls-12" d="M132.45,74.78c.27-.11.53-.2.79-.28l.5-.14.46-.1c.2,0,.4-.07.6-.09l.34,0c.24,0,.48,0,.72,0H136a7.4,7.4,0,0,1,.84.11l.19,0a5.61,5.61,0,0,1,.62.18l.19.07a4.57,4.57,0,0,1,.74.35h0l-5.16-3-.06,0a5.85,5.85,0,0,0-.56-.28l-.11,0-.19-.06-.3-.11-.32-.07-.2,0-.11,0a5.05,5.05,0,0,0-.68-.08h-.21a4.69,4.69,0,0,0-.53,0l-.19,0-.34,0-.31,0-.28.06c-.16,0-.31.06-.47.09a2.1,2.1,0,0,0-.24.06l-.26.08c-.26.08-.52.17-.79.28l-.28.09-.28.13-.26.12c-.34.16-.69.34-1,.54s-.72.44-1.07.68l-.34.25c-.24.17-.47.34-.71.53l-.38.32-.64.55-.38.36-.24.22-.24.26c-.25.26-.5.52-.75.8-.07.08-.16.16-.23.25a2.11,2.11,0,0,0-.19.23c-.15.17-.3.35-.44.53s-.19.23-.29.35l-.22.3-.31.42-.21.29-.35.51-.21.33-.09.13c-.2.32-.4.63-.58,1l0,.07c0,.06-.07.13-.11.2-.13.22-.26.45-.38.68l-.17.33c0,.11-.11.22-.17.33l-.15.3-.36.8-.06.13,0,0c-.15.34-.28.67-.41,1a1.07,1.07,0,0,0-.07.19c-.05.12-.09.25-.14.37s-.12.33-.17.5-.08.26-.13.4-.09.31-.14.46-.06.19-.08.29-.09.34-.13.51-.1.39-.14.58a1.17,1.17,0,0,0,0,.2c0,.13,0,.27-.07.41-.06.3-.11.6-.16.9,0,.08,0,.16,0,.25s0,.37-.05.56,0,.26,0,.4c0,.41,0,.83,0,1.24,0,3.55,1.26,6,3.28,7.21l5.15,3c-2-1.17-3.27-3.67-3.28-7.21,0-.41,0-.83.05-1.25,0-.13,0-.26,0-.39s.06-.54.1-.81.1-.6.16-.9.07-.41.11-.62l.15-.57c.06-.27.13-.53.21-.8s.09-.31.14-.47l.3-.9c0-.12.09-.24.14-.37.15-.41.31-.82.49-1.23l.07-.14c.16-.37.33-.73.51-1.09.06-.11.11-.22.17-.34l.55-1,.11-.19c.22-.39.46-.78.7-1.15l.22-.33c.18-.27.37-.54.56-.8l.31-.42.51-.65.43-.53c.14-.17.29-.33.43-.49l.75-.8.48-.48.38-.35.64-.55.38-.32c.23-.19.47-.36.71-.54l.34-.24c.35-.24.71-.47,1.07-.68s.69-.38,1-.54l.27-.12C132.08,74.91,132.26,74.85,132.45,74.78Z"/><path class="cls-13" d="M130.59,75.66c6.21-3.59,11.27-.72,11.29,6.42s-5,15.83-11.22,19.41-11.26.72-11.28-6.42S124.38,79.24,130.59,75.66Z"/><polygon class="cls-14" points="130.6 84.31 130.61 88.45 138.4 83.95 138.41 86.93 130.62 91.42 130.63 95.56 125.72 92.76 130.6 84.31"/><rect class="cls-15" x="121.74" y="-3.43" width="0.53" height="15.51" transform="matrix(0.53, 0.85, -0.85, 0.53, 61.17, -101.52)"/><rect class="cls-15" x="110.11" y="10.14" width="4.28" height="0.53" transform="translate(11.47 60.93) rotate(-31.92)"/><rect class="cls-15" x="149.79" y="55.11" width="0.53" height="15.51" transform="matrix(0.53, 0.85, -0.85, 0.53, 124.07, -97.74)"/><rect class="cls-15" x="138.16" y="68.68" width="4.28" height="0.53" transform="translate(-15.24 84.61) rotate(-31.92)"/><rect class="cls-15" x="66.86" y="78.28" width="0.53" height="15.51" transform="translate(104.66 -16.44) rotate(58.08)"/><rect class="cls-15" x="55.23" y="91.85" width="4.28" height="0.53" transform="translate(-40.03 44.27) rotate(-31.92)"/><circle class="cls-16" cx="95.12" cy="18.69" r="1.83"/><circle class="cls-16" cx="153.66" cy="85.76" r="1.83"/></g></g></svg>