<svg xmlns="http://www.w3.org/2000/svg" xmlns:xlink="http://www.w3.org/1999/xlink" viewBox="0 0 200 143.08"><defs><style>.cls-1{fill:url(#未命名的渐变_4);}.cls-2{fill:url(#未命名的渐变_12);}.cls-3{fill:#95b6ff;}.cls-4{fill:url(#未命名的渐变_12-2);}.cls-5{fill:url(#未命名的渐变_12-3);}.cls-6{fill:url(#未命名的渐变_12-4);}.cls-7{fill:#52b269;}.cls-8{fill:#83de90;}.cls-9{fill:#fff;}.cls-10{fill:url(#未命名的渐变_12-5);}.cls-11{fill:url(#未命名的渐变_12-6);}.cls-12{fill:url(#未命名的渐变_12-7);}.cls-13{fill:url(#未命名的渐变_12-8);}.cls-14{fill:#e28686;}.cls-15{fill:none;stroke:#e28686;stroke-miterlimit:10;}</style><linearGradient id="未命名的渐变_4" x1="100" y1="143.08" x2="100" y2="91.86" gradientUnits="userSpaceOnUse"><stop offset="0" stop-color="#fff"/><stop offset="1" stop-color="#cfdfff"/></linearGradient><linearGradient id="未命名的渐变_12" x1="109.82" y1="33.93" x2="109.82" y2="130.5" gradientUnits="userSpaceOnUse"><stop offset="0" stop-color="#cddeff"/><stop offset="1" stop-color="#7eaaff"/></linearGradient><linearGradient id="未命名的渐变_12-2" x1="67.44" y1="43.42" x2="134.81" y2="43.42" xlink:href="#未命名的渐变_12"/><linearGradient id="未命名的渐变_12-3" x1="108.6" y1="28.72" x2="108.6" y2="57.67" xlink:href="#未命名的渐变_12"/><linearGradient id="未命名的渐变_12-4" x1="69.77" y1="36.21" x2="130.22" y2="36.21" xlink:href="#未命名的渐变_12"/><linearGradient id="未命名的渐变_12-5" x1="92.93" y1="60.21" x2="132.74" y2="60.21" xlink:href="#未命名的渐变_12"/><linearGradient id="未命名的渐变_12-6" x1="92.93" y1="72.4" x2="132.74" y2="72.4" xlink:href="#未命名的渐变_12"/><linearGradient id="未命名的渐变_12-7" x1="92.93" y1="84.6" x2="132.74" y2="84.6" xlink:href="#未命名的渐变_12"/><linearGradient id="未命名的渐变_12-8" x1="92.71" y1="101.67" x2="119.54" y2="101.67" xlink:href="#未命名的渐变_12"/></defs><title>提交成功</title><g id="图层_2" data-name="图层 2"><g id="图层_1-2" data-name="图层 1"><path class="cls-1" d="M193.9,126H164.63c-2.69,0-4.87-1.28-4.87-2.85s2.18-2.85,4.87-2.85h18.3c2.69,0,4.87-1.27,4.87-2.84s-2.18-2.85-4.87-2.85h-11c-2.7,0-4.88-1.27-4.88-2.84s2.18-2.85,4.88-2.85h23.23c2.7,0,4.88-1.27,4.88-2.84s-2.18-2.85-4.88-2.85H165.85c-2.69,0-4.87-1.27-4.87-2.84s2.18-2.85,4.87-2.85h18.3c2.69,0,4.87-1.27,4.87-2.85s-2.18-2.84-4.87-2.84H28.05c-2.7,0-4.88,1.27-4.88,2.84s2.18,2.85,4.88,2.85h3.72c2.69,0,4.88,1.27,4.88,2.85s-2.19,2.84-4.88,2.84H6.1c-2.7,0-4.88,1.28-4.88,2.85s2.18,2.84,4.88,2.84H37.8c2.7,0,4.88,1.28,4.88,2.85s-2.18,2.84-4.88,2.84h-11c-2.69,0-4.88,1.28-4.88,2.85s2.19,2.84,4.88,2.84h3.72c2.7,0,4.88,1.28,4.88,2.85S33.25,126,30.55,126H4.88C2.18,126,0,127.28,0,128.85s2.18,2.85,4.88,2.85H36.59c2.69,0,4.87,1.27,4.87,2.84s-2.18,2.85-4.87,2.85H29.27c-2.7,0-4.88,1.27-4.88,2.84s2.18,2.85,4.88,2.85h143.9c2.69,0,4.88-1.28,4.88-2.85s-2.19-2.84-4.88-2.84h-2.5c-2.7,0-4.88-1.28-4.88-2.85s2.18-2.84,4.88-2.84H193.9c2.7,0,4.88-1.28,4.88-2.85S196.6,126,193.9,126Z"/><path class="cls-1" d="M193.9,126H164.63c-2.69,0-4.87-1.28-4.87-2.85s2.18-2.85,4.87-2.85h18.3c2.69,0,4.87-1.27,4.87-2.84s-2.18-2.85-4.87-2.85h-11c-2.7,0-4.88-1.27-4.88-2.84s2.18-2.85,4.88-2.85h23.23c2.7,0,4.88-1.27,4.88-2.84s-2.18-2.85-4.88-2.85H165.85c-2.69,0-4.87-1.27-4.87-2.84s2.18-2.85,4.87-2.85h18.3c2.69,0,4.87-1.27,4.87-2.85s-2.18-2.84-4.87-2.84H28.05c-2.7,0-4.88,1.27-4.88,2.84s2.18,2.85,4.88,2.85h3.72c2.69,0,4.88,1.27,4.88,2.85s-2.19,2.84-4.88,2.84H6.1c-2.7,0-4.88,1.28-4.88,2.85s2.18,2.84,4.88,2.84H37.8c2.7,0,4.88,1.28,4.88,2.85s-2.18,2.84-4.88,2.84h-11c-2.69,0-4.88,1.28-4.88,2.85s2.19,2.84,4.88,2.84h3.72c2.7,0,4.88,1.28,4.88,2.85S33.25,126,30.55,126H4.88C2.18,126,0,127.28,0,128.85s2.18,2.85,4.88,2.85H36.59c2.69,0,4.87,1.27,4.87,2.84s-2.18,2.85-4.87,2.85H29.27c-2.7,0-4.88,1.27-4.88,2.84s2.18,2.85,4.88,2.85h143.9c2.69,0,4.88-1.28,4.88-2.85s-2.19-2.84-4.88-2.84h-2.5c-2.7,0-4.88-1.28-4.88-2.85s2.18-2.84,4.88-2.84H193.9c2.7,0,4.88-1.28,4.88-2.85S196.6,126,193.9,126Z"/><polygon class="cls-2" points="134.81 33.93 135 101.53 84.83 130.5 84.63 62.9 134.81 33.93"/><polygon class="cls-3" points="84.83 130.5 67.63 120.51 67.44 52.91 84.63 62.9 84.83 130.5"/><polygon class="cls-4" points="84.63 62.9 67.44 52.91 117.62 23.94 134.81 33.93 84.63 62.9"/><polygon class="cls-5" points="130.22 28.72 130.23 32.69 86.97 57.66 86.96 53.69 130.22 28.72"/><polygon class="cls-3" points="86.97 57.66 69.78 47.67 69.77 43.7 86.96 53.69 86.97 57.66"/><polygon class="cls-6" points="86.96 53.69 69.77 43.7 113.03 18.73 130.22 28.72 86.96 53.69"/><path class="cls-7" d="M139.76,89.41c.27-.1.54-.2.8-.27l.5-.14.46-.1q.3-.06.6-.09l.33,0a5.82,5.82,0,0,1,.72,0h.17a5.54,5.54,0,0,1,.83.1l.2,0a6.32,6.32,0,0,1,.62.18l.19.06a7.12,7.12,0,0,1,.74.35h0l-5.16-3-.06,0a5,5,0,0,0-.57-.27l-.11,0-.19-.07-.29-.1-.33-.08-.19,0-.11,0c-.22,0-.45-.06-.68-.08H138a4.86,4.86,0,0,0-.54,0h-.18l-.34,0a3,3,0,0,0-.31,0c-.1,0-.19,0-.29.06l-.46.1-.25,0-.25.09-.79.27-.28.1-.28.13-.27.12c-.34.16-.68.33-1,.53s-.72.44-1.07.68l-.34.25-.71.53-.38.32c-.22.18-.43.37-.64.56l-.38.35-.24.23-.24.25-.75.8-.24.25-.18.23-.44.54c-.1.11-.2.22-.29.34l-.22.3-.31.42-.22.3-.34.51-.22.32-.09.14c-.2.31-.39.63-.58,1l0,.06a2,2,0,0,0-.11.2c-.13.23-.26.45-.38.68l-.17.33c-.06.11-.11.22-.17.34l-.15.29c-.13.27-.25.53-.37.8l-.06.14v0c-.15.33-.29.67-.42,1l-.06.19c0,.12-.09.25-.14.37l-.18.5-.12.4c0,.16-.1.31-.14.46l-.09.29c0,.17-.08.34-.12.52l-.15.57c0,.07,0,.13,0,.2s0,.28-.08.41c0,.31-.11.6-.15.9,0,.08,0,.17,0,.25s0,.37-.06.56,0,.27,0,.4c0,.42,0,.83,0,1.24,0,3.55,1.26,6,3.28,7.22l5.16,3c-2-1.17-3.27-3.66-3.28-7.21,0-.41,0-.83,0-1.24,0-.13,0-.27,0-.4s.06-.54.1-.81.09-.6.15-.9l.12-.61c0-.19.09-.38.14-.58s.14-.53.22-.8.09-.31.14-.46q.14-.45.3-.9l.13-.37c.16-.41.32-.83.5-1.24l.06-.13c.17-.37.34-.74.52-1.1.05-.11.11-.22.17-.33.17-.34.35-.68.54-1l.11-.2c.23-.39.47-.77.71-1.15l.22-.32c.18-.28.37-.54.56-.81l.31-.42c.16-.22.33-.43.5-.65s.29-.36.44-.53.29-.32.43-.48.49-.54.75-.8.32-.33.48-.48l.38-.35c.21-.2.42-.38.63-.56l.39-.32.71-.53.34-.25c.35-.24.71-.47,1.07-.68s.69-.37,1-.54l.27-.12Z"/><path class="cls-8" d="M137.91,90.29c6.21-3.59,11.27-.72,11.29,6.42s-5,15.83-11.22,19.42-11.26.71-11.28-6.43S131.69,93.88,137.91,90.29Z"/><polygon class="cls-9" points="142.1 98.04 143.32 98.74 139.06 106.13 137.84 108.24 136.61 107.54 134.77 106.49 135.99 104.38 137.83 105.43 142.1 98.04"/><polygon class="cls-10" points="132.73 46.73 132.74 50.7 92.94 73.69 92.93 69.71 132.73 46.73"/><polygon class="cls-11" points="132.73 58.93 132.74 62.9 92.94 85.88 92.93 81.91 132.73 58.93"/><polygon class="cls-12" points="132.73 71.12 132.74 75.1 92.94 98.08 92.93 94.1 132.73 71.12"/><polygon class="cls-13" points="119.53 91.94 119.54 95.92 92.72 111.41 92.71 107.43 119.53 91.94"/><rect class="cls-14" x="113.21" y="-3.43" width="0.53" height="15.51" transform="translate(57.14 -94.27) rotate(58.08)"/><rect class="cls-14" x="101.57" y="10.14" width="4.28" height="0.53" transform="translate(10.18 56.41) rotate(-31.92)"/><rect class="cls-14" x="141.25" y="55.11" width="0.53" height="15.51" transform="translate(120.04 -90.49) rotate(58.08)"/><rect class="cls-14" x="129.62" y="68.68" width="4.28" height="0.53" transform="translate(-16.53 80.1) rotate(-31.92)"/><rect class="cls-14" x="58.33" y="78.28" width="0.53" height="15.51" transform="translate(100.63 -9.19) rotate(58.08)"/><rect class="cls-14" x="46.69" y="91.85" width="4.28" height="0.53" transform="translate(-41.32 39.75) rotate(-31.92)"/><circle class="cls-15" cx="86.59" cy="18.69" r="1.83"/><circle class="cls-15" cx="151.22" cy="85.76" r="1.83"/></g></g></svg>