<?xml version="1.0" encoding="utf-8"?>
<!-- Generator: Adobe Illustrator 22.1.0, SVG Export Plug-In . SVG Version: 6.00 Build 0)  -->
<svg version="1.1" id="图层_1" xmlns="http://www.w3.org/2000/svg" xmlns:xlink="http://www.w3.org/1999/xlink" x="0px" y="0px"
	 viewBox="0 0 200 143.1" style="enable-background:new 0 0 200 143.1;" xml:space="preserve">
<style type="text/css">
	.st0{fill:url(#Combined-Shape_2_);}
	.st1{opacity:0.4;filter:url(#filter-2);enable-background:new    ;}
	.st2{fill:#D8D8D8;}
	.st3{fill:#FFFFFF;}
</style>
<filter  filterUnits="objectBoundingBox" height="297.5%" id="filter-2" width="110.6%" x="-5.3%" y="-98.8%">
	<feGaussianBlur  in="SourceGraphic" stdDeviation="0.987723214"></feGaussianBlur>
</filter>
<title>提交成功</title>
<g id="移动uI">
	<g id="提现成功-copy" transform="translate(-148.000000, -455.000000)">
		<g id="等待" transform="translate(148.000000, 455.000000)">
			
				<linearGradient id="Combined-Shape_2_" gradientUnits="userSpaceOnUse" x1="70.3913" y1="97.2925" x2="70.3913" y2="96.2925" gradientTransform="matrix(92.0198 0 0 -86.9983 -6371.3843 8485.833)">
				<stop  offset="0" style="stop-color:#7BC0FF"/>
				<stop  offset="1" style="stop-color:#548CFF"/>
			</linearGradient>
			<path id="Combined-Shape" class="st0" d="M99.6,108.5C77.7,108.5,60,90.8,60,68.8s17.7-39.7,39.6-39.7s39.6,17.8,39.6,39.7
				S121.5,108.5,99.6,108.5z M129.9,33.2c-1-1,0.8-4.3,3.9-7.5s6.5-4.9,7.5-3.9c1,1-0.8,4.3-3.9,7.5
				C134.2,32.4,130.9,34.2,129.9,33.2z M139.9,37.4c-0.4-1,2-2.9,5.4-4.1s6.4-1.4,6.7-0.3c0.4,1-2,2.9-5.4,4.1
				C143.3,38.3,140.2,38.5,139.9,37.4z"/>
			<g id="Oval-27" class="st1">
				<ellipse class="st2" cx="100" cy="120" rx="28" ry="1.5"/>
			</g>
			<path id="Combined-Shape_1_" class="st3" d="M97,75V55c0-0.8,0.7-1.5,1.5-1.5s1.5,0.7,1.5,1.5v18.5h13.5c0.8,0,1.5,0.7,1.5,1.5
				c0,0.8-0.7,1.5-1.5,1.5h-15C97.7,76.5,97,75.9,97,75z"/>
		</g>
	</g>
</g>
</svg>
