<svg xmlns="http://www.w3.org/2000/svg" xmlns:xlink="http://www.w3.org/1999/xlink" viewBox="0 0 200 140.64"><defs><style>.cls-1{fill:url(#未命名的渐变_4);}.cls-2{fill:#95b6ff;}.cls-3{fill:url(#未命名的渐变_12);}.cls-4{fill:url(#未命名的渐变_12-2);}.cls-5{fill:#52b269;}.cls-6{fill:#83de90;}.cls-7{fill:#fff;}.cls-8{fill:#e28686;}.cls-9{fill:none;stroke:#e28686;stroke-miterlimit:10;}</style><linearGradient id="未命名的渐变_4" x1="100" y1="140.64" x2="100" y2="89.42" gradientUnits="userSpaceOnUse"><stop offset="0" stop-color="#fff"/><stop offset="1" stop-color="#cfdfff"/></linearGradient><linearGradient id="未命名的渐变_12" x1="111.03" y1="35.96" x2="111.03" y2="113.85" gradientTransform="translate(120.01 -58.73) rotate(59.84)" gradientUnits="userSpaceOnUse"><stop offset="0" stop-color="#cddeff"/><stop offset="1" stop-color="#7eaaff"/></linearGradient><linearGradient id="未命名的渐变_12-2" x1="95.54" y1="77.37" x2="130.16" y2="77.37" gradientTransform="matrix(1, 0, 0, 1, 0, 0)" xlink:href="#未命名的渐变_12"/></defs><title>领取成功</title><g id="图层_2" data-name="图层 2"><g id="图层_1-2" data-name="图层 1"><path class="cls-1" d="M193.9,123.57H164.63c-2.69,0-4.87-1.28-4.87-2.85s2.18-2.84,4.87-2.84h18.3c2.69,0,4.87-1.28,4.87-2.85s-2.18-2.85-4.87-2.85h-11c-2.7,0-4.88-1.27-4.88-2.84s2.18-2.85,4.88-2.85h23.23c2.7,0,4.88-1.27,4.88-2.84s-2.18-2.85-4.88-2.85H165.85c-2.69,0-4.87-1.27-4.87-2.84s2.18-2.85,4.87-2.85h18.3c2.69,0,4.87-1.27,4.87-2.84s-2.18-2.85-4.87-2.85H28.05c-2.7,0-4.88,1.27-4.88,2.85s2.18,2.84,4.88,2.84h3.72c2.69,0,4.88,1.28,4.88,2.85s-2.19,2.84-4.88,2.84H6.1c-2.7,0-4.88,1.28-4.88,2.85s2.18,2.84,4.88,2.84H37.8c2.7,0,4.88,1.28,4.88,2.85s-2.18,2.84-4.88,2.84h-11c-2.69,0-4.88,1.28-4.88,2.85s2.19,2.85,4.88,2.85h3.72c2.7,0,4.88,1.27,4.88,2.84s-2.18,2.85-4.88,2.85H4.88c-2.7,0-4.88,1.27-4.88,2.84s2.18,2.85,4.88,2.85H36.59c2.69,0,4.87,1.27,4.87,2.84S39.28,135,36.59,135H29.27c-2.7,0-4.88,1.27-4.88,2.84s2.18,2.85,4.88,2.85h143.9c2.69,0,4.88-1.27,4.88-2.85s-2.19-2.84-4.88-2.84h-2.5c-2.7,0-4.88-1.28-4.88-2.85s2.18-2.84,4.88-2.84H193.9c2.7,0,4.88-1.28,4.88-2.85S196.6,123.57,193.9,123.57Z"/><path class="cls-2" d="M80.87,89.21c.06-.86.15-1.73.26-2.6,0-.24.06-.48.1-.72.06-.41.11-.82.18-1.23l.15-.82c.07-.39.14-.79.23-1.18,0-.23.09-.45.14-.67.22-1,.46-2,.74-3,0-.17.1-.34.14-.51.25-.87.51-1.74.8-2.61l.06-.2c.28-.84.59-1.68.91-2.52l.24-.63c.28-.71.57-1.42.87-2.12,0-.11.09-.22.13-.33.34-.78.7-1.55,1.07-2.32l.3-.61c.3-.61.6-1.22.92-1.82l.29-.56c.41-.76.82-1.51,1.25-2.25l.26-.42c.38-.65.77-1.28,1.17-1.92.12-.18.23-.37.35-.56q.75-1.16,1.53-2.28c.08-.12.17-.23.25-.34.54-.78,1.11-1.54,1.68-2.29.08-.1.15-.2.23-.29.72-.93,1.46-1.84,2.22-2.72l.3-.35c.47-.53,1-1.06,1.43-1.57l.08-.09c.5-.54,1-1.07,1.54-1.58l.33-.33c.68-.66,1.37-1.3,2.07-1.93a1.54,1.54,0,0,0,.19-.17c.73-.63,1.47-1.24,2.21-1.82l.43-.34c.73-.56,1.48-1.1,2.23-1.62l.4-.26c.79-.53,1.58-1,2.39-1.5.64-.37,1.28-.71,1.91-1l.55-.27,1.45-.66.5-.22,1.34-.51.33-.12c.55-.19,1.1-.35,1.64-.5.31-.09.63-.16.94-.24l.44-.1c.46-.1.92-.19,1.37-.26.69-.1,1.36-.16,2-.2l.4,0c.6,0,1.19,0,1.76,0l.3,0c.46,0,.92.09,1.37.16l.41.07a12.89,12.89,0,0,1,1.52.35l.06,0c.47.14.92.3,1.37.48l.38.16c.38.17.76.35,1.12.55l.36.19L115.29,28l-.16-.09-.2-.1c-.36-.2-.74-.38-1.12-.55l-.2-.1-.18-.06c-.45-.18-.9-.34-1.37-.48l0,0h0a12.89,12.89,0,0,0-1.52-.35l-.17,0a2.24,2.24,0,0,0-.24,0c-.45-.07-.91-.13-1.37-.16l-.22,0h-.08c-.57,0-1.16,0-1.76,0h-.17l-.23,0c-.66,0-1.33.1-2,.2h0c-.45.07-.91.16-1.37.26l-.44.1-.86.21-.08,0c-.54.15-1.09.31-1.64.5l-.33.12-1.34.51L98,28l-.33.15-1.45.66-.55.27c-.63.32-1.27.66-1.91,1-.81.47-1.6,1-2.39,1.5l-.4.26c-.75.52-1.5,1.06-2.23,1.62l-.43.34c-.74.58-1.48,1.19-2.21,1.82l-.19.18c-.7.62-1.39,1.26-2.06,1.92l-.21.2-.13.13c-.52.51-1,1-1.54,1.58l-.08.09c-.48.51-1,1-1.42,1.57l-.14.15-.17.21c-.76.88-1.5,1.78-2.22,2.71l-.07.07-.16.23Q76.83,45.81,76,47c-.06.08-.12.15-.17.23a1,1,0,0,0-.08.11Q75,48.45,74.24,49.6l-.15.22-.2.34c-.4.64-.79,1.28-1.18,1.92l-.18.3-.06.12c-.44.74-.85,1.5-1.26,2.25l-.1.18-.19.38c-.32.6-.63,1.21-.93,1.82-.06.13-.12.25-.19.38s-.06.15-.1.23c-.37.77-.73,1.54-1.07,2.32l0,.08c0,.08-.07.16-.1.25-.3.7-.59,1.41-.87,2.12,0,.11-.1.23-.14.34s-.07.19-.1.29c-.32.84-.63,1.68-.91,2.52v0l0,.15c-.29.87-.55,1.74-.8,2.61,0,.11-.07.22-.1.33a1.16,1.16,0,0,1,0,.18c-.28,1-.52,2-.74,3,0,.09,0,.18-.07.27s0,.26-.07.39c-.08.4-.16.8-.23,1.19l-.15.82q-.1.61-.18,1.23l-.09.57a.76.76,0,0,0,0,.15c-.11.87-.2,1.74-.26,2.6l0,.55c0,.88-.09,1.76-.09,2.63,0,9.55,3.4,16.26,8.84,19.42l17.19,10c-5.44-3.16-8.81-9.88-8.84-19.42,0-.87,0-1.75.09-2.63Z"/><ellipse class="cls-3" cx="111.03" cy="74.91" rx="42.68" ry="24.72" transform="translate(-9.52 133.27) rotate(-59.84)"/><polygon class="cls-4" points="130.16 59.82 119.48 74.93 123.61 87.02 112.89 84.26 102.22 99.37 106.26 82.56 95.54 79.81 108.76 72.17 112.81 55.37 116.94 67.45 130.16 59.82"/><path class="cls-5" d="M137.33,80.87c.26-.1.53-.19.79-.27l.5-.14.46-.1q.3-.06.6-.09l.34,0c.24,0,.48,0,.72,0h.16a5.53,5.53,0,0,1,.83.11l.2,0a6.32,6.32,0,0,1,.62.18l.19.07a5,5,0,0,1,.74.35h0l-5.16-3-.06,0a4.18,4.18,0,0,0-.56-.28l-.12,0-.19-.07-.29-.1-.33-.08-.19,0-.11,0-.68-.08s0,0,0,0a.86.86,0,0,1-.16,0c-.18,0-.35,0-.53,0l-.19,0-.34,0-.31,0c-.1,0-.19,0-.29.06l-.46.1-.24.05a2.67,2.67,0,0,1-.26.09c-.26.08-.52.17-.79.28-.09,0-.19.05-.28.09l-.28.13-.27.12c-.34.16-.68.34-1,.54s-.72.44-1.07.68l-.34.25c-.24.17-.48.34-.71.53l-.38.32-.64.55-.38.36-.24.22-.24.25-.75.8-.24.26-.18.23c-.15.17-.3.35-.44.53s-.2.23-.29.35l-.22.3-.31.42-.22.29c-.11.17-.22.34-.34.51s-.14.22-.22.33a1,1,0,0,1-.09.13c-.2.31-.39.63-.58,1l0,.07-.11.19c-.13.23-.26.46-.38.69s-.11.22-.17.32-.11.23-.17.34l-.15.29c-.13.27-.25.54-.37.81a1.39,1.39,0,0,1-.06.13v0c-.15.33-.29.67-.42,1l-.06.18-.14.38-.18.5-.12.39-.14.47-.09.28-.12.52c0,.19-.1.38-.14.57a1.94,1.94,0,0,0,0,.2c0,.14,0,.28-.07.42-.06.3-.12.6-.16.9,0,.08,0,.16,0,.24s0,.38-.06.56,0,.27,0,.4a10.53,10.53,0,0,0,0,1.25c0,3.54,1.26,6,3.27,7.21l5.16,3c-2-1.17-3.27-3.67-3.28-7.22,0-.41,0-.82,0-1.24,0-.13,0-.26,0-.4s.06-.54.1-.81.1-.6.15-.9l.12-.61c0-.19.1-.38.14-.57s.14-.54.22-.8.09-.31.14-.47.19-.6.3-.9c0-.12.09-.24.13-.37.16-.41.32-.82.5-1.23l.06-.14c.17-.37.34-.73.52-1.09a3.59,3.59,0,0,1,.17-.34c.17-.34.36-.68.55-1,0-.07.07-.13.1-.2.23-.39.47-.77.71-1.15l.22-.32.56-.81.31-.42c.16-.22.33-.43.51-.64l.43-.54.43-.48c.24-.27.49-.54.75-.8l.48-.48.38-.35.63-.56.39-.31c.23-.19.47-.37.71-.54a4.15,4.15,0,0,1,.34-.24c.35-.25.71-.48,1.07-.69s.69-.37,1-.53l.27-.12C137,81,137.14,80.94,137.33,80.87Z"/><path class="cls-6" d="M135.47,81.75c6.21-3.58,11.27-.71,11.29,6.43s-5,15.83-11.22,19.41-11.26.71-11.28-6.43S129.26,85.34,135.47,81.75Z"/><polygon class="cls-7" points="139.66 89.5 140.88 90.2 136.62 97.59 135.4 99.7 134.17 99 132.33 97.95 133.56 95.84 135.39 96.89 139.66 89.5"/><rect class="cls-8" x="120.52" y="-3.43" width="0.53" height="15.51" transform="matrix(0.53, 0.85, -0.85, 0.53, 60.59, -100.48)"/><rect class="cls-8" x="108.89" y="10.14" width="4.28" height="0.53" transform="translate(11.29 60.28) rotate(-31.92)"/><rect class="cls-8" x="148.57" y="55.11" width="0.53" height="15.51" transform="translate(123.49 -96.7) rotate(58.08)"/><rect class="cls-8" x="136.94" y="68.68" width="4.28" height="0.53" transform="translate(-15.42 83.97) rotate(-31.92)"/><rect class="cls-8" x="65.64" y="78.28" width="0.53" height="15.51" transform="translate(104.08 -15.4) rotate(58.08)"/><rect class="cls-8" x="54.01" y="91.85" width="4.28" height="0.53" transform="translate(-40.22 43.62) rotate(-31.92)"/><circle class="cls-9" cx="93.9" cy="18.69" r="1.83"/><circle class="cls-9" cx="152.44" cy="85.76" r="1.83"/></g></g></svg>